<?xml version="1.0" encoding="UTF-8" standalone="no"?><!DOCTYPE svg PUBLIC "-//W3C//DTD SVG 1.1//EN" "http://www.w3.org/Graphics/SVG/1.1/DTD/svg11.dtd"><svg width="100%" height="100%" viewBox="0 0 2400 500" version="1.1" xmlns="http://www.w3.org/2000/svg" xmlns:xlink="http://www.w3.org/1999/xlink" xml:space="preserve" xmlns:serif="http://www.serif.com/" style="fill-rule:evenodd;clip-rule:evenodd;stroke-linejoin:round;stroke-miterlimit:2;"><g><g><path d="M89.688,217.694c2.413,-32.812 23.171,-52.113 48.274,-52.113c24.62,0 47.792,16.889 48.757,52.113l-97.031,0Zm161.719,39.568c0,-94.093 -38.619,-141.381 -111.514,-141.381c-72.894,-0 -114.893,47.288 -114.893,120.632c-0,85.89 39.585,129.318 118.755,129.318c50.688,-0 89.791,-27.504 104.273,-76.24l-64.688,0c-4.345,16.406 -22.206,26.539 -42.481,26.539c-30.896,0 -51.171,-23.161 -53.102,-58.868l163.65,-0Z" style="fill:#f5f5f5;fill-rule:nonzero;"/><path d="M337.336,359.558l-0,-237.404l-62.757,-0l-0,237.404l62.757,0Zm-0,-265.874c6.537,-6.082 7.844,-17.029 7.844,-29.193c0,-12.163 -1.307,-23.111 -7.844,-29.193c-6.538,-6.082 -18.304,-7.298 -31.379,-7.298c-13.074,0 -24.841,1.216 -31.378,7.298c-6.537,6.082 -7.845,17.03 -7.845,29.193c0,12.164 1.308,23.111 7.845,29.193c6.537,6.082 18.304,7.299 31.378,7.299c13.075,-0 24.841,-1.217 31.379,-7.299Z" style="fill:#f5f5f5;fill-rule:nonzero;"/><path d="M479.745,312.27c-30.895,0 -53.584,-27.021 -53.584,-69.484c-0,-48.736 18.344,-72.379 53.584,-72.379c35.723,-0 53.585,24.609 53.585,76.239c-0,40.05 -23.172,65.624 -53.585,65.624Zm51.654,54.526c-0,31.364 -26.551,51.148 -59.86,51.148c-31.379,0 -52.137,-16.888 -52.137,-45.358l-58.412,0c0,61.282 48.757,99.401 114.893,99.401c66.136,0 118.273,-38.602 118.273,-110.016l-0,-239.817l-62.757,-0l-0,29.434c-14.965,-24.127 -36.689,-35.707 -66.619,-35.707c-57.446,-0 -103.79,49.7 -103.79,123.527c0,62.247 27.034,122.08 105.238,122.08c30.896,0 56.482,-12.546 65.171,-33.777l-0,39.085Z" style="fill:#f5f5f5;fill-rule:nonzero;"/><path d="M681.05,217.694c2.413,-32.812 23.171,-52.113 48.274,-52.113c24.62,0 47.792,16.889 48.757,52.113l-97.031,0Zm161.719,39.568c0,-94.093 -38.619,-141.381 -111.514,-141.381c-72.894,-0 -114.893,47.288 -114.893,120.632c-0,85.89 39.585,129.318 118.755,129.318c50.688,-0 89.791,-27.504 104.273,-76.24l-64.688,0c-4.345,16.406 -22.206,26.539 -42.481,26.539c-30.896,0 -51.171,-23.161 -53.102,-58.868l163.65,-0Z" style="fill:#f5f5f5;fill-rule:nonzero;"/><path d="M1079.8,359.558l-0,-164.542c-0,-51.631 -33.31,-79.135 -78.688,-79.135c-38.137,-0 -62.274,14.476 -76.756,41.015l-0,-34.742l-59.86,-0l-0,237.404l62.756,0l0,-136.073c0,-36.19 15.931,-54.526 48.758,-54.526c29.93,-0 40.55,10.133 40.55,46.805l0,143.794l63.24,0Z" style="fill:#f5f5f5;fill-rule:nonzero;"/><path d="M1310.55,194.05c-3.379,-51.148 -34.274,-78.169 -102.824,-78.169c-72.412,-0 -99.928,30.399 -99.928,70.449c-0,21.231 7.724,39.567 29.93,53.561c16.896,10.615 39.102,17.371 79.17,27.021c20.275,4.826 38.137,10.134 38.137,27.022c-0,17.854 -19.793,24.609 -41.999,24.609c-30.413,0 -49.24,-13.028 -49.24,-35.225l-64.688,0c0.966,48.253 41.516,82.513 114.411,82.513c67.584,-0 103.79,-29.434 103.79,-78.652c-0,-30.882 -14,-47.288 -39.102,-57.421c-18.345,-7.238 -43.93,-12.546 -70.964,-20.267c-25.585,-7.238 -38.619,-13.028 -38.619,-27.021c-0,-13.994 13.516,-19.784 37.171,-19.784c28.482,0 41.033,8.203 44.412,31.364l60.343,0Z" style="fill:#f5f5f5;fill-rule:nonzero;"/><path d="M1466.96,264.982c-0,29.435 -11.586,46.323 -36.689,46.323c-25.585,0 -36.206,-17.371 -36.206,-47.288l0,-97.471l131.307,0l-0,-44.392l-131.307,-0l0,-64.177l-61.791,0l-0,212.313c-0,51.148 27.516,95.541 97.032,95.541c67.101,-0 96.066,-44.875 96.066,-95.058l-0,-67.554l-58.412,-0l-0,61.763Z" style="fill:#f5f5f5;fill-rule:nonzero;"/><path d="M1764.81,359.558l0,-237.404l-62.274,-0l-0,137.038c-0,31.364 -16.896,54.043 -48.757,54.043c-26.551,0 -40.068,-14.476 -40.068,-44.392l-0,-146.689l-62.757,-0l0,156.339c0,52.113 33.31,87.338 80.619,87.338c32.826,-0 57.446,-12.546 73.859,-39.567l0,33.294l59.378,0Z" style="fill:#f5f5f5;fill-rule:nonzero;"/><path d="M1904.81,314.683c-31.378,-0 -53.585,-29.434 -53.585,-71.897c0,-48.736 17.379,-73.345 54.068,-73.345c34.757,0 52.619,25.575 52.619,77.205c-0,40.05 -23.172,68.037 -53.102,68.037Zm112.479,44.875l0,-324.26l-61.791,0l0,117.737c-17.861,-25.091 -41.033,-37.154 -70.481,-37.154c-61.308,-0 -97.514,50.665 -97.514,122.562c-0,80.1 42.964,127.388 102.825,127.388c28.964,-0 51.17,-11.098 66.136,-35.225l0.482,28.952l60.343,0Z" style="fill:#f5f5f5;fill-rule:nonzero;"/><path d="M2109.01,359.558l-0,-237.404l-62.757,-0l0,237.404l62.757,0Zm-0,-265.874c6.537,-6.082 7.844,-17.029 7.844,-29.193c0,-12.163 -1.307,-23.111 -7.844,-29.193c-6.537,-6.082 -18.304,-7.298 -31.379,-7.298c-13.074,0 -24.841,1.216 -31.378,7.298c-6.537,6.082 -7.845,17.03 -7.845,29.193c0,12.164 1.308,23.111 7.845,29.193c6.537,6.082 18.304,7.299 31.378,7.299c13.075,-0 24.842,-1.217 31.379,-7.299Z" style="fill:#f5f5f5;fill-rule:nonzero;"/><path d="M2254.31,313.235c-38.137,0 -57.447,-24.126 -57.447,-72.379c0,-48.253 19.31,-71.897 57.447,-71.897c38.137,-0 57.446,23.644 57.446,71.897c0,48.253 -19.309,72.379 -57.446,72.379Zm-0,52.596c73.86,-0 120.686,-49.701 120.686,-124.975c-0,-75.757 -46.343,-124.975 -120.686,-124.975c-75.308,-0 -122.134,49.7 -122.134,124.975c-0,73.827 45.378,124.975 122.134,124.975Z" style="fill:#f5f5f5;fill-rule:nonzero;"/></g></g></svg>