<?xml version="1.0" encoding="UTF-8" standalone="no"?><!DOCTYPE svg PUBLIC "-//W3C//DTD SVG 1.1//EN" "http://www.w3.org/Graphics/SVG/1.1/DTD/svg11.dtd"><svg width="100%" height="100%" viewBox="0 0 1200 1200" version="1.1" xmlns="http://www.w3.org/2000/svg" xmlns:xlink="http://www.w3.org/1999/xlink" xml:space="preserve" xmlns:serif="http://www.serif.com/" style="fill-rule:evenodd;clip-rule:evenodd;stroke-linecap:round;stroke-linejoin:round;stroke-miterlimit:1.5;"><g><path d="M397.103,281.222c10.732,-8.247 52.018,-32.701 64.46,-38.851c3.1,-1.533 8.419,-1.018 10.19,1.952c72.824,122.117 352.6,606.989 426.752,730.75c3.711,6.195 11.037,10.615 18.158,11.815c12.293,2.071 40.722,1.276 55.604,1.852c3.975,0.568 8.05,4.555 8.487,8.546c1.458,13.311 1.792,56.573 0.261,70.083c-0.509,4.492 -4.927,9.569 -9.445,9.734l-257.122,0c-3.641,-0.109 -7.139,-4.339 -7.482,-7.965c-1.246,-13.21 -1.288,-55.416 0,-68.891c0.39,-4.078 3.662,-9.061 7.729,-9.557c13.076,-1.592 57.896,0.621 70.73,-2.399c6.221,-1.464 9.307,-12.496 6.269,-18.12c-35.322,-65.397 -178.837,-311.889 -218.202,-374.267c-5.44,-8.62 -12.755,-8.469 -17.984,0c-38.32,62.064 -178.345,307.066 -211.932,372.384c-3.373,6.558 3.262,17.694 10.406,19.522c12.72,3.253 53.427,1.345 65.912,2.854c4.225,0.511 8.534,4.824 9.002,9.053c1.5,13.56 1.336,56.063 0,69.449c-0.375,3.759 -4.238,7.9 -8.014,8.014l-258.073,0c-3.661,-0.107 -7.418,-4.124 -7.77,-7.77c-1.295,-13.422 -1.423,-57.114 0,-70.664c0.421,-4.004 4.546,-8.04 8.541,-8.541c11.367,-1.423 47.654,-0.436 59.666,-2.095c5.252,-0.725 9.745,-5.368 12.405,-9.955c47.752,-82.325 229.04,-400.998 274.107,-484c2.306,-4.246 -1.355,-9.792 -3.705,-14.014c-18.764,-33.717 -90.72,-155.133 -108.879,-188.286c-1.702,-3.109 -2.881,-8.473 -0.071,-10.633Z" style="fill:#f5f5f5;stroke:#000;stroke-opacity:0;stroke-width:0.6px;"/><path d="M761.082,227.763c44.752,-19.968 211.888,-88.916 258.209,-106.041c6.249,-2.311 15.285,-1.688 19.715,3.289c2.09,2.091 14.545,33.169 14.892,35.59c0.813,5.67 -2.552,12.669 -7.574,15.424c-15.118,8.296 -67.373,26.555 -83.136,34.351c-9.232,4.566 -12.352,5.001 -11.444,12.426c0.956,7.827 8.682,6.787 13.86,7.356c11.159,1.226 42.769,-1.41 53.094,-0c4.045,0.552 7.369,4.659 8.853,8.462c3.172,8.126 9.528,31.497 10.175,40.294c0.341,4.649 -2.304,10.081 -6.296,12.486c-33.466,20.163 -159.409,90.739 -194.5,108.491c-4.808,2.433 -12.08,1.864 -15.902,-1.933c-1.654,-1.644 -17.832,-30.161 -18.67,-32.519c-1.802,-5.065 -2.993,-12.808 1.251,-16.107c12.495,-9.713 60.607,-33.656 73.575,-42.21c2.797,-1.846 5.478,-5.181 4.232,-9.12c-0.875,-2.766 -2.952,-7.046 -9.484,-7.479c-15.759,-1.044 -84.642,1.374 -103.44,0c-4.144,-0.303 -7.936,-4.338 -9.349,-8.245c-2.951,-8.166 -8.686,-31.662 -8.363,-40.748c0.203,-5.728 5.068,-11.432 10.302,-13.767Z" style="fill:#f5f5f5;stroke:#000;stroke-opacity:0;stroke-width:0.6px;"/></g></svg>